<svg width="33" height="10" viewBox="0 0 33 10" fill="none" xmlns="http://www.w3.org/2000/svg">
<path d="M0.492 0.599999H1.812V7.8H3.984V9H0.492V0.599999ZM4.617 0.599999H8.217V1.8H5.937V4.02H7.749V5.22H5.937V7.8H8.217V9H4.617V0.599999ZM10.7158 9.12C10.0758 9.12 9.59181 8.94 9.26381 8.58C8.93581 8.212 8.77181 7.688 8.77181 7.008V6.528H10.0198V7.104C10.0198 7.648 10.2478 7.92 10.7038 7.92C10.9278 7.92 11.0958 7.856 11.2078 7.728C11.3278 7.592 11.3878 7.376 11.3878 7.08C11.3878 6.728 11.3078 6.42 11.1478 6.156C10.9878 5.884 10.6918 5.56 10.2598 5.184C9.71581 4.704 9.33581 4.272 9.11981 3.888C8.90381 3.496 8.79581 3.056 8.79581 2.568C8.79581 1.904 8.96381 1.392 9.29981 1.032C9.63581 0.664 10.1238 0.48 10.7638 0.48C11.3958 0.48 11.8718 0.664 12.1918 1.032C12.5198 1.392 12.6838 1.912 12.6838 2.592V2.94H11.4358V2.508C11.4358 2.22 11.3798 2.012 11.2678 1.884C11.1558 1.748 10.9918 1.68 10.7758 1.68C10.3358 1.68 10.1158 1.948 10.1158 2.484C10.1158 2.788 10.1958 3.072 10.3558 3.336C10.5238 3.6 10.8238 3.92 11.2558 4.296C11.8078 4.776 12.1878 5.212 12.3958 5.604C12.6038 5.996 12.7078 6.456 12.7078 6.984C12.7078 7.672 12.5358 8.2 12.1918 8.568C11.8558 8.936 11.3638 9.12 10.7158 9.12ZM15.3865 0.599999H17.3305C17.9865 0.599999 18.4785 0.776 18.8065 1.128C19.1345 1.48 19.2985 1.996 19.2985 2.676V3.504C19.2985 4.184 19.1345 4.7 18.8065 5.052C18.4785 5.404 17.9865 5.58 17.3305 5.58H16.7065V9H15.3865V0.599999ZM17.3305 4.38C17.5465 4.38 17.7065 4.32 17.8105 4.2C17.9225 4.08 17.9785 3.876 17.9785 3.588V2.592C17.9785 2.304 17.9225 2.1 17.8105 1.98C17.7065 1.86 17.5465 1.8 17.3305 1.8H16.7065V4.38H17.3305ZM20.6136 0.599999H22.4016L23.7696 9H22.4496L22.2096 7.332V7.356H20.7096L20.4696 9H19.2456L20.6136 0.599999ZM22.0536 6.216L21.4656 2.064H21.4416L20.8656 6.216H22.0536ZM26.3065 9.12C25.6665 9.12 25.1785 8.94 24.8425 8.58C24.5065 8.212 24.3385 7.688 24.3385 7.008V0.599999H25.6585V7.104C25.6585 7.392 25.7145 7.6 25.8265 7.728C25.9465 7.856 26.1145 7.92 26.3305 7.92C26.5465 7.92 26.7105 7.856 26.8225 7.728C26.9425 7.6 27.0025 7.392 27.0025 7.104V0.599999H28.2745V7.008C28.2745 7.688 28.1065 8.212 27.7705 8.58C27.4345 8.94 26.9465 9.12 26.3065 9.12ZM29.2147 0.599999H30.5347V7.8H32.7067V9H29.2147V0.599999Z" fill="black"/>
</svg>
